{"title":"Casino.1995.DVDRip.XViD.AC3(5.1)SWESUB.avi","uid":5516363,"size":1688034060,"categoryP":"video","categoryS":"movies","magnet":"?xt=urn:btih:c5b74f9874012d890951bb3bf9be3efa795404cd&amp;dn=Casino.1995.DVDRip.XViD.AC3%285.1%29SWESUB.avi&amp;tr=udp%3A%2F%2Ftracker.openbittorrent.com%3A80&amp;tr=udp%3A%2F%2Fopen.demonii.com%3A1337&amp;tr=udp%3A%2F%2Ftracker.coppersurfer.tk%3A6969&amp;tr=udp%3A%2F%2Fexodus.desync.com%3A6969","seeders":5,"leechers":0,"uploader":"Zen_Bud","files":-1,"time":1272269195,"description":"General\nComplete name                    : Casino.avi\nFormat                           : AVI\nFormat/Info                      : Audio Video Interleave\nFile size                        : 1.57 GiB\nDuration                         : 2h 58mn\nOverall bit rate                 : 1 262 Kbps\n\nVideo\nID                               : 0\nFormat                           : MPEG-4 Visual\nCodec ID/Hint                    : XviD\nDuration                         : 2h 58mn\nBit rate                         : 803 Kbps\nWidth                            : 720 pixels\nHeight                           : 436 pixels\nDisplay aspect ratio             : 2.35:1\nFrame rate                       : 25.000 fps\nResolution                       : 8 bits\nColorimetry                      : 4:2:0\nScan type                        : Progressive\nBits/(Pixel*Frame)               : 0.102\nStream size                      : 1.00 GiB (64%)\nWriting library                  : XviD 1.1.2 (UTC 2006-11-01)\n\nAudio\nID                               : 1\nFormat                           : AC-3\nFormat/Info                      : Audio Coding 3\nCodec ID                         : 2000\nDuration                         : 2h 58mn\nBit rate mode                    : Constant\nBit rate                         : 448 Kbps\nChannel(s)                       : 6 channels\nChannel positions                : Front: L C R, Side: L R, LFE\nSampling rate                    : 48.0 KHz\nStream size                      : 572 MiB (36%)\nAlignment                        : Aligned on interleaves\nInterleave, duration             : 32 ms (0.80 video frame)\nInterleave, preload duration     : 512 ms\n\n","torrent":{"xt":"urn:btih:c5b74f9874012d890951bb3bf9be3efa795404cd","amp;dn":"Casino.1995.DVDRip.XViD.AC3%285.1%29SWESUB.avi","amp;tr":["udp%3A%2F%2Ftracker.openbittorrent.com%3A80","udp%3A%2F%2Fopen.demonii.com%3A1337","udp%3A%2F%2Ftracker.coppersurfer.tk%3A6969","udp%3A%2F%2Fexodus.desync.com%3A6969"],"infoHash":"c5b74f9874012d890951bb3bf9be3efa795404cd","infoHashBuffer":{"type":"Buffer","data":[197,183,79,152,116,1,45,137,9,81,187,59,249,190,62,250,121,84,4,205]},"announce":[],"urlList":[]}}